<svg width="629" height="157" viewBox="0 0 629 157" fill="none" xmlns="http://www.w3.org/2000/svg">
<path d="M75.392 119H5.12V33.24H24.32V101.72H75.392V119ZM201.07 119H181.87V54.872H199.662V74.584H200.814C202.478 63.832 210.158 53.592 226.926 53.592C244.462 53.592 252.782 64.856 252.782 79.064V119H233.582V85.464C233.582 75.224 229.358 70.872 217.582 70.872C205.422 70.872 201.07 75.736 201.07 86.616V119ZM282.207 120.28C268.383 120.28 260.063 113.88 260.063 103.128C260.063 93.656 267.103 87.768 280.799 86.36L308.319 83.544V81.112C308.319 72.792 304.607 70.488 294.367 70.488C284.639 70.488 280.671 73.048 280.671 80.344V80.856H261.343V80.472C261.343 64.6 274.655 53.592 295.775 53.592C317.151 53.592 327.263 64.6 327.263 81.368V119H309.343V104.28H308.319C305.375 114.264 296.415 120.28 282.207 120.28ZM279.391 101.848C279.391 105.304 282.079 106.712 287.711 106.712C300.767 106.712 307.807 103.64 308.319 94.552L286.047 97.112C281.439 97.496 279.391 98.776 279.391 101.848ZM356.195 119H336.995V33.24H356.195V119ZM400.293 120.28C378.917 120.28 364.325 109.784 364.325 87C364.325 66.52 378.789 53.592 399.909 53.592C420.901 53.592 434.853 64.6 434.853 84.696C434.853 87 434.597 88.664 434.341 90.84H382.117C382.629 100.696 387.237 104.92 399.653 104.92C411.045 104.92 415.013 101.976 415.013 96.472V95.192H434.213V96.6C434.213 110.552 420.645 120.28 400.293 120.28ZM399.525 68.568C388.133 68.568 383.269 72.408 382.373 80.728H416.421C415.909 72.28 410.789 68.568 399.525 68.568ZM462.707 120.28C448.883 120.28 440.563 113.88 440.563 103.128C440.563 93.656 447.603 87.768 461.299 86.36L488.819 83.544V81.112C488.819 72.792 485.107 70.488 474.867 70.488C465.139 70.488 461.171 73.048 461.171 80.344V80.856H441.843V80.472C441.843 64.6 455.155 53.592 476.275 53.592C497.651 53.592 507.763 64.6 507.763 81.368V119H489.843V104.28H488.819C485.875 114.264 476.915 120.28 462.707 120.28ZM459.891 101.848C459.891 105.304 462.579 106.712 468.211 106.712C481.267 106.712 488.307 103.64 488.819 94.552L466.547 97.112C461.939 97.496 459.891 98.776 459.891 101.848ZM546.167 120.28C526.199 120.28 515.191 107.224 515.191 87C515.191 66.52 526.071 53.592 545.143 53.592C560.375 53.592 568.183 61.144 570.359 71.896H571.511V33.24H590.711V119H572.791V101.208H571.767C569.335 113.88 560.887 120.28 546.167 120.28ZM534.647 87C534.647 98.648 540.407 102.744 552.695 102.744C564.855 102.744 571.511 98.52 571.511 87.384V86.36C571.511 75.224 564.983 71.128 552.695 71.128C540.407 71.128 534.647 75.224 534.647 87ZM624.294 119H599.59V96.6H624.294V119Z" fill="#F7E7CE"/>
<g clip-path="url(#clip0_42_68)">
<path d="M144.394 50.5657C143.745 50.9398 143.219 51.4868 142.876 52.1444C142.533 52.8021 142.387 53.5439 142.454 54.2854C142.888 58.8889 142.301 63.5139 140.733 67.8422C137.845 75.8528 131.826 82.3678 123.989 85.9667C116.152 89.5655 107.132 89.9563 98.8965 87.0539C96.3271 86.1118 93.8748 84.8781 91.5903 83.3782C90.9697 83.0112 90.2631 82.8115 89.5434 82.7997C88.8237 82.788 88.1169 82.9646 87.4958 83.3115C86.8747 83.6583 86.3618 84.1628 86.0098 84.7729C85.6579 85.3831 85.4798 86.0768 85.4937 86.7827C86.089 93.5904 88.4368 100.166 92.3165 105.891C96.1962 111.615 101.48 116.302 107.673 119.511C113.865 122.719 120.762 124.344 127.717 124.232C134.671 124.121 141.454 122.276 147.428 118.872C153.402 115.469 158.372 110.617 161.87 104.774C165.368 98.9304 167.28 92.2868 167.426 85.4672C167.572 78.6477 165.947 71.8759 162.704 65.7882C159.461 59.7004 154.706 54.4965 148.887 50.6653C148.224 50.2154 147.444 49.9658 146.645 49.9481C145.845 49.9304 145.062 50.1453 144.394 50.5657ZM157.24 95.1379C154.949 101.374 150.738 106.732 145.182 110.479C139.626 114.226 132.997 116.178 126.204 116.068C119.41 115.958 112.784 113.792 107.232 109.865C101.68 105.939 97.4733 100.445 95.1889 94.1345L96.2204 94.505C106.495 98.184 117.773 97.7376 127.579 93.2637C137.386 88.7897 144.919 80.6538 148.527 70.6413C149.481 68.0151 150.142 65.2907 150.496 62.5158C154.56 66.8781 157.351 72.2271 158.566 77.9856C159.781 83.7442 159.376 89.6939 157.393 95.1928L157.24 95.1379Z" fill="#F7E7CE"/>
<path d="M157.24 95.1379C154.949 101.374 150.738 106.732 145.182 110.479C139.626 114.226 132.997 116.178 126.204 116.068C119.41 115.958 112.784 113.792 107.232 109.865C101.68 105.939 97.4733 100.445 95.1889 94.1345L96.2204 94.505C106.495 98.184 117.773 97.7376 127.579 93.2637C137.386 88.7897 144.919 80.6538 148.527 70.6413C149.481 68.0151 150.142 65.2907 150.496 62.5158C154.56 66.8781 157.351 72.2271 158.566 77.9856C159.781 83.7442 159.376 89.6939 157.393 95.1928L157.24 95.1379Z" fill="#F7E7CE"/>
</g>
<defs>
<clipPath id="clip0_42_68">
<rect width="100.079" height="94.7482" fill="white" transform="translate(67 112.161) rotate(-70.2436)"/>
</clipPath>
</defs>
</svg>
