<svg width="606" height="581" viewBox="0 0 606 581" fill="none" xmlns="http://www.w3.org/2000/svg">
<g clip-path="url(#clip0_42_70)">
<path d="M388.109 168.624C384.9 169.827 382.222 171.857 380.378 174.481C378.535 177.105 377.601 180.219 377.683 183.467C378.271 203.641 373.995 223.259 365.148 240.969C348.832 273.756 318.096 298.083 279.641 308.648C241.186 319.213 198.131 315.158 159.863 297.368C147.936 291.659 136.66 284.765 126.268 276.827C123.432 274.845 120.133 273.532 116.711 273.023C113.29 272.514 109.869 272.827 106.801 273.931C103.734 275.034 101.131 276.888 99.2604 279.301C97.3898 281.715 96.3193 284.6 96.1592 287.66C96.8098 317.465 105.876 347.381 122.505 374.597C139.135 401.814 162.783 425.438 191.227 443.25C219.671 461.062 251.978 472.477 285.112 476.423C318.246 480.369 351.121 476.716 380.647 465.808C410.173 454.9 435.382 437.095 453.905 414.065C472.429 391.035 483.658 363.536 486.539 334.151C489.42 304.767 483.858 274.462 470.375 246.083C456.892 217.704 435.932 192.182 409.462 171.915C406.454 169.549 402.821 167.973 399.021 167.388C395.22 166.802 391.423 167.232 388.109 168.624ZM434.959 369.466C422.056 394.962 400.292 415.441 372.647 428.098C345.002 440.755 312.827 444.971 280.529 440.17C248.23 435.369 217.386 421.785 192.22 401.277C167.054 380.77 148.796 354.342 139.946 325.612L144.737 327.87C192.459 350.316 246.28 355.569 294.389 342.475C342.497 329.382 380.963 299.013 401.344 258.032C406.728 247.288 410.745 235.932 413.323 224.164C431.267 245.608 442.833 270.505 446.771 296.171C450.709 321.836 446.87 347.294 435.669 369.801L434.959 369.466Z" fill="#F7E7CE"/>
<path d="M434.959 369.466C422.056 394.962 400.292 415.441 372.647 428.098C345.002 440.755 312.827 444.971 280.529 440.17C248.23 435.369 217.386 421.785 192.22 401.277C167.054 380.77 148.796 354.342 139.946 325.612L144.737 327.87C192.459 350.316 246.28 355.569 294.389 342.475C342.497 329.382 380.963 299.013 401.344 258.032C406.728 247.288 410.745 235.932 413.323 224.164C431.267 245.608 442.833 270.505 446.771 296.171C450.709 321.836 446.87 347.294 435.669 369.801L434.959 369.466Z" fill="#F7E7CE"/>
</g>
<defs>
<clipPath id="clip0_42_70">
<rect width="430.388" height="457.85" fill="white" transform="matrix(0.444278 -0.895889 0.904539 0.42639 0 385.58)"/>
</clipPath>
</defs>
</svg>
